<svg
    xmlns="http://www.w3.org/2000/svg"
    xmlns:svg="http://www.w3.org/2000/svg"
    viewBox="0 0 100 100"
>
    <style>
        @media (prefers-color-scheme: dark) {
            .a {fill: #74dedd}
        }
    </style>
    <path class="a" fill="#006b6b"
    d="M-2647.695 4.391a50 50 0 0 0-23.75 6.93 50 50 0 0 0-18.462 66.962 50 50 0 0 0 66.273 20.798 50 50 0 0 0 23.108-65.504l-3.351-6.152a50 50 0 0 0-43.818-23.034Zm-25.827 17.897h40.04v9.564h-5.421v.142c2.065 1.333 3.666 2.927 4.802 4.782 1.136 1.903 1.704 4.069 1.704 6.495 0 2.332-.49 4.449-1.472 6.352-.98 1.95-2.71 3.426-5.189 4.425 1.755 1.095 3.304 2.57 4.647 4.425 1.342 1.903 2.014 4.14 2.014 6.71 0 1.242-.106 2.427-.315 3.554h2.201c3.563 0 6.48 1.023 8.752 3.069 2.272 2.046 3.407 5.139 3.407 9.278 0 .904-.052 1.808-.155 2.712-.052.904-.103 1.784-.154 2.64h-8.21c.155-1.189.232-2.426.232-3.71 0-1.38-.36-2.38-1.084-2.998-.671-.57-1.833-.856-3.485-.856h-2.4v6.994h-7.358v-6.994h-32.683V68.737h.127v-.2h22.692c1.343 0 2.607-.048 3.795-.143 1.187-.095 2.22-.357 3.098-.785a4.92 4.92 0 0 0 2.091-1.927c.516-.81.774-1.927.774-3.355 0-1.427-.31-2.593-.929-3.497-.568-.856-1.342-1.547-2.323-2.07-.93-.476-2.014-.809-3.253-.999a30.48 30.48 0 0 0-3.64-.214h-22.305V45.412h22.46c1.187 0 2.349-.024 3.485-.071 1.187-.048 2.272-.262 3.253-.643a4.416 4.416 0 0 0 2.323-1.784c.62-.809.93-2.022.93-3.64 0-.475-.13-1.118-.388-1.927-.206-.76-.645-1.522-1.316-2.284-.62-.713-1.55-1.332-2.789-1.855-1.187-.524-2.762-.785-4.724-.785h-23.234V22.288z"
    style="
        opacity: 1;
        fill-opacity: 1;
        stroke: none;
        stroke-width: 10;
        stroke-miterlimit: 4;
        stroke-dasharray: none;
        stroke-opacity: 1;
    "
    transform="translate(2696 -4.362)"
    />
</svg>
