<?xml version="1.0" encoding="UTF-8" standalone="no"?>
<!-- Created with Inkscape (http://www.inkscape.org/) -->

<svg
   version="1.1"
   id="svg1"
   width="155.0332"
   height="155.0332"
   viewBox="0 0 155.0332 155.0332"
   sodipodi:docname="harborcircle.svg"
   inkscape:version="1.4.4 (1:1.4.4+202605061436+dcaf3e7d9e)"
   xmlns:inkscape="http://www.inkscape.org/namespaces/inkscape"
   xmlns:sodipodi="http://sodipodi.sourceforge.net/DTD/sodipodi-0.dtd"
   xmlns="http://www.w3.org/2000/svg"
   xmlns:svg="http://www.w3.org/2000/svg">
  <sodipodi:namedview
     id="namedview1"
     pagecolor="#ffffff"
     bordercolor="#000000"
     borderopacity="0.25"
     inkscape:showpageshadow="2"
     inkscape:pageopacity="0.0"
     inkscape:pagecheckerboard="0"
     inkscape:deskcolor="#d1d1d1"
     inkscape:zoom="4.7538204"
     inkscape:cx="77.516602"
     inkscape:cy="77.516602"
     inkscape:window-width="1920"
     inkscape:window-height="945"
     inkscape:window-x="0"
     inkscape:window-y="0"
     inkscape:window-maximized="1"
     inkscape:current-layer="svg1" />
  <defs
     id="defs1" />
  <path
     id="path68"
     style="fill:#ffffff;fill-opacity:1;stroke:none;stroke-width:1.08163"
     d="M 77.51758,1e-5 A 77.516418,77.516418 0 0 0 0,77.51564 77.516418,77.516418 0 0 0 77.51758,155.03322 77.516418,77.516418 0 0 0 155.0332,77.51564 77.516418,77.516418 0 0 0 77.51758,1e-5 Z m -9.27148,32.375 v 1.63672 c -5.87493,0 -7.74024,3.80183 -7.74024,11.17383 v 26.12891 c -0.0108,0.003 -0.0224,0.009 -0.0332,0.0117 v 0.002 c 0.0112,-0.004 0.0219,-0.009 0.0332,-0.0117 3.12398,-0.90616 6.34925,-1.43164 9.67578,-1.43164 11.70416,0 23.03984,3.79145 27.875,14.56055 h 0.002 V 45.18756 c 0,-7.372 -1.86712,-11.17383 -7.74219,-11.17383 v -1.63671 h 36.44922 v 1.63671 c -5.87507,0 -7.74219,3.80183 -7.74219,11.17383 v 64.66211 c 0,7.3724 1.86712,11.17383 7.74219,11.17383 v 1.63477 H 90.31645 v -1.63477 c 5.87507,0 7.74219,-3.80143 7.74219,-11.17383 v -12.5039 c 0,-9.4916 -3.27209,-21.19532 -14.53516,-21.19532 -17.3244,0 -41.91065,27.2793 -57.76172,27.2793 -11.05778,0 -21.49219,-9.04492 -21.49219,-9.04492 l 1.03516,-1.27735 c 0,0 4.33046,3.68555 9.21484,3.68555 6.90279,0 15.25272,-7.28035 25.02149,-14.26758 V 45.18756 c 0,-7.372 -1.86723,-11.17383 -7.74219,-11.17383 v -1.63671 z m -7.74024,58.60547 v 18.86914 c 1e-5,7.3724 1.86531,11.17383 7.74024,11.17383 v 1.63477 H 31.79883 v -1.63477 c 5.87495,0 7.74219,-3.80143 7.74219,-11.17383 v -5.85156 c 5.2428,-2.61773 10.71883,-6.24779 16.35937,-9.98633 1.5308,-1.01453 3.07054,-2.03231 4.60547,-3.03125 z" />
</svg>
